<?xml version="1.0" encoding="UTF-8" standalone="no"?>
<svg
   version="1.1"
   x="0px"
   y="0px"
   viewBox="0 0 85 32.108002"
   xml:space="preserve"
   id="svg267"
   sodipodi:docname="noun-german-deutsch-bundestag-2104986.svg"
   width="85"
   height="32.108002"
   inkscape:version="1.1.2 (0a00cf5339, 2022-02-04)"
   xmlns:inkscape="http://www.inkscape.org/namespaces/inkscape"
   xmlns:sodipodi="http://sodipodi.sourceforge.net/DTD/sodipodi-0.dtd"
   xmlns="http://www.w3.org/2000/svg"
   xmlns:svg="http://www.w3.org/2000/svg"><defs
     id="defs271" /><sodipodi:namedview
     id="namedview269"
     pagecolor="#ffffff"
     bordercolor="#666666"
     borderopacity="1.0"
     inkscape:pageshadow="2"
     inkscape:pageopacity="0.0"
     inkscape:pagecheckerboard="0"
     showgrid="false"
     fit-margin-top="0"
     fit-margin-left="0"
     fit-margin-right="0"
     fit-margin-bottom="0"
     inkscape:zoom="7.08"
     inkscape:cx="42.443503"
     inkscape:cy="28.601695"
     inkscape:window-width="1850"
     inkscape:window-height="1136"
     inkscape:window-x="0"
     inkscape:window-y="0"
     inkscape:window-maximized="1"
     inkscape:current-layer="svg267" /><g
     id="g261"
     transform="translate(-7.5,-33.946)"><path
       d="M 48.496,51.522 H 48.37 v 9.809 h 0.125 c 0.121,0 0.22,0.096 0.22,0.219 0,0.094 -0.066,0.158 -0.148,0.191 h 0.099 c 0.062,0 0.109,0.047 0.109,0.106 v 0.34 H 50 51.225 v -0.34 c 0,-0.06 0.051,-0.106 0.11,-0.106 h 0.1 c -0.082,-0.033 -0.147,-0.098 -0.147,-0.191 0,-0.123 0.095,-0.219 0.217,-0.219 h 0.126 v -9.809 h -0.126 c -0.122,0 -0.217,-0.1 -0.217,-0.222 0,-0.109 0.084,-0.195 0.194,-0.207 H 50 48.52 c 0.108,0.012 0.196,0.098 0.196,0.207 0,0.123 -0.1,0.222 -0.22,0.222 z m 0.459,0.302 H 50 51.044 v 9.425 H 50 48.955 Z"
       id="path157" /><polygon
       points="50,62.908 51.225,62.908 51.225,62.41 50,62.41 48.775,62.41 48.775,62.908 "
       id="polygon159" /><path
       d="M 44.824,51.522 H 44.7 v 9.809 h 0.125 c 0.122,0 0.218,0.096 0.218,0.219 0,0.094 -0.065,0.158 -0.148,0.191 h 0.102 c 0.059,0 0.109,0.047 0.109,0.106 v 0.34 h 1.984 v -0.34 c 0,-0.06 0.05,-0.106 0.11,-0.106 h 0.101 c -0.082,-0.033 -0.148,-0.098 -0.148,-0.191 0,-0.123 0.097,-0.219 0.218,-0.219 h 0.125 v -9.809 h -0.125 c -0.122,0 -0.218,-0.1 -0.218,-0.222 0,-0.109 0.088,-0.195 0.195,-0.207 h -2.499 c 0.109,0.012 0.195,0.098 0.195,0.207 -0.002,0.123 -0.098,0.222 -0.22,0.222 z m 0.45,0.302 h 1.623 v 9.425 h -1.623 z"
       id="path161" /><rect
       x="47.307999"
       y="61.959"
       width="1.25"
       height="0.949"
       id="rect163" /><rect
       x="41.43"
       y="62.41"
       width="1.988"
       height="0.498"
       id="rect165" /><path
       d="m 41.153,51.522 h -0.127 v 9.809 h 0.127 c 0.121,0 0.219,0.096 0.219,0.219 0,0.094 -0.067,0.158 -0.149,0.191 h 0.1 c 0.061,0 0.108,0.047 0.108,0.106 v 0.34 h 1.988 v -0.34 c 0,-0.06 0.048,-0.106 0.11,-0.106 h 0.099 c -0.083,-0.033 -0.15,-0.098 -0.15,-0.191 0,-0.123 0.1,-0.219 0.22,-0.219 h 0.126 v -9.809 h -0.126 c -0.121,0 -0.22,-0.1 -0.22,-0.222 0,-0.109 0.089,-0.195 0.196,-0.207 h -2.498 c 0.108,0.012 0.196,0.098 0.196,0.207 0,0.123 -0.099,0.222 -0.219,0.222 z m 0.452,0.302 h 1.624 v 9.425 h -1.624 z"
       id="path167" /><rect
       x="45.104"
       y="62.41"
       width="1.984"
       height="0.498"
       id="rect169" /><rect
       x="43.636002"
       y="61.959"
       width="1.25"
       height="0.949"
       id="rect171" /><path
       d="m 19.966,51.693 v 10.184 h 2.687 c -0.002,-0.012 -0.011,-0.017 -0.011,-0.029 0,-0.118 0.099,-0.218 0.219,-0.218 h 0.203 V 51.982 H 22.86 c -0.12,0 -0.219,-0.1 -0.219,-0.218 0,-0.028 0.02,-0.048 0.029,-0.07 h -2.704 z m 1.581,0.242 0.999,0.741 h -1.999 z m 1.008,9.615 h -2.016 v -0.9 h 2.016 z m 0,-1.188 h -2.016 v -0.83 h 2.016 z m 0,-1.114 h -2.016 v -0.742 h 2.016 z m 0,-1.031 h -2.016 v -0.379 c 0,-0.561 0.452,-1.009 1.008,-1.009 0.558,0 1.008,0.448 1.008,1.009 z m 0.034,-1.989 h -0.652 v 0.151 h -0.779 v -0.151 h -0.653 v -0.299 h 2.084 z m 0.207,-3.367 v 2.6 h -0.481 v -2.202 h -1.537 v 2.202 h -0.481 v -2.6 z"
       id="path173" /><rect
       x="9.6269999"
       y="62.833"
       width="2.3299999"
       height="3.221"
       id="rect175" /><polygon
       points="39.389,49.943 50,49.943 60.613,49.943 61.086,49.467 61.086,49.217 61.018,49.188 50,49.188 38.981,49.188 38.914,49.217 38.914,49.467 "
       id="polygon177" /><path
       d="m 23.92,51.981 h -0.201 v 9.648 h 0.201 c 0.122,0 0.219,0.1 0.219,0.218 0,0.013 -0.01,0.018 -0.012,0.029 h 2.21 c -0.002,-0.012 -0.012,-0.017 -0.012,-0.029 0,-0.118 0.098,-0.218 0.219,-0.218 h 0.202 v -9.648 h -0.202 c -0.121,0 -0.219,-0.1 -0.219,-0.218 0,-0.028 0.021,-0.048 0.029,-0.07 H 24.11 c 0.009,0.022 0.029,0.042 0.029,0.07 0,0.119 -0.097,0.218 -0.219,0.218 z m 2.32,9.569 h -2.015 v -0.9 h 2.015 z m 0,-1.188 h -2.015 v -0.83 h 2.015 z m 0,-1.114 h -2.015 v -0.742 h 2.015 z m 0,-1.031 h -2.015 v -0.379 c 0,-0.561 0.451,-1.009 1.008,-1.009 0.557,0 1.007,0.448 1.007,1.009 z m 0.035,-1.989 h -0.653 v 0.151 h -0.78 v -0.151 h -0.651 v -0.299 h 2.083 v 0.299 z m -1.043,-4.293 1,0.741 h -1.999 z m 1.25,0.926 v 2.6 h -0.481 v -2.202 h -1.538 v 2.202 h -0.481 v -2.6 z"
       id="path179" /><path
       d="m 12.175,66.054 h 4.843 v -1.059 c 0,-0.076 0.048,-0.132 0.11,-0.172 v -1.99 h -4.953 z m 1.424,-2.967 h 2.105 v 2.205 h -2.105 z"
       id="path181" /><path
       d="m 31.292,51.981 h -0.204 v 9.648 h 0.204 c 0.12,0 0.218,0.1 0.218,0.218 0,0.013 -0.008,0.018 -0.01,0.029 h 2.209 c -0.001,-0.012 -0.01,-0.017 -0.01,-0.029 0,-0.118 0.096,-0.218 0.218,-0.218 h 0.201 v -9.648 h -0.201 c -0.123,0 -0.218,-0.1 -0.218,-0.218 0,-0.028 0.019,-0.048 0.028,-0.07 H 31.48 c 0.01,0.022 0.029,0.042 0.029,0.07 0.001,0.119 -0.097,0.218 -0.217,0.218 z m 2.32,9.569 h -2.018 v -0.9 h 2.018 z m 0,-1.188 h -2.018 v -0.83 h 2.018 z m 0,-1.114 h -2.018 v -0.742 h 2.018 z m 0,-1.031 h -2.018 v -0.379 c 0,-0.561 0.453,-1.009 1.009,-1.009 0.558,0 1.008,0.448 1.009,1.009 z m 0.034,-1.989 h -0.653 v 0.151 h -0.78 V 56.228 H 31.56 v -0.299 h 2.085 v 0.299 z m -1.043,-4.293 1,0.741 h -2 z m 1.251,0.926 v 2.6 h -0.481 v -2.202 h -1.539 v 2.202 h -0.48 v -2.6 z"
       id="path183" /><path
       d="M 37.08,62.833 H 17.347 v 1.941 l 3.595,-0.161 v -1.38 h 1.212 v 1.328 l 2.473,-0.112 v -1.216 h 1.213 v 1.164 l 2.474,-0.112 v -1.052 h 1.211 v 1 l 2.474,-0.112 v -0.888 h 1.212 v 0.836 l 2.473,-0.112 v -0.724 h 1.214 v 0.671 l 0.877,-0.041 V 62.41 H 37.72 c -0.062,0 -0.11,-0.051 -0.11,-0.11 0,-0.059 0.048,-0.112 0.11,-0.112 h 0.447 V 51.693 h -3.001 c 0.01,0.022 0.031,0.042 0.031,0.07 0,0.118 -0.099,0.218 -0.219,0.218 h -0.203 v 9.648 h 0.203 c 0.12,0 0.219,0.1 0.219,0.218 0,0.013 -0.01,0.018 -0.011,0.029 h 1.895 c 0.121,0 0.22,0.099 0.22,0.217 0,0.122 -0.099,0.222 -0.22,0.222 H 9.627 v 0.3 H 37.08 c 0.061,0 0.111,0.049 0.111,0.112 0,0.059 -0.05,0.106 -0.111,0.106 z m -0.792,-10.898 1.001,0.741 h -2.001 z m -1.25,3.526 v -2.6 h 2.5 v 2.6 h -0.48 v -2.202 h -1.539 v 2.202 z m 2.258,6.089 H 35.28 v -0.9 h 2.016 z m 0,-1.188 H 35.28 v -0.83 h 2.016 z m 0,-1.114 H 35.28 v -0.742 h 2.016 z m 0,-1.031 H 35.28 v -0.379 c 0,-0.561 0.453,-1.009 1.007,-1.009 0.559,0 1.009,0.448 1.009,1.009 z m -0.617,-1.989 v 0.151 H 35.9 v -0.151 h -0.653 v -0.299 h 2.085 v 0.299 z"
       id="path185" /><path
       d="m 39.964,63.327 c 0,0.062 -0.049,0.108 -0.11,0.108 H 38.6 v 0.391 l 1.295,-0.059 c 0.06,-0.006 0.119,0.021 0.163,0.061 0.042,0.042 0.067,0.098 0.067,0.159 v 0.012 c 0.009,-0.002 0.013,-0.007 0.02,-0.007 H 50 59.854 c 0.009,0 0.014,0.005 0.023,0.007 v -0.012 c 0,-0.062 0.024,-0.117 0.065,-0.159 0.046,-0.04 0.104,-0.066 0.161,-0.061 l 1.3,0.059 v -0.391 h -1.256 c -0.062,0 -0.11,-0.047 -0.11,-0.108 v -1.368 h -1.249 v 0.949 h 0.626 c 0.059,0 0.106,0.05 0.106,0.108 0,0.062 -0.048,0.11 -0.106,0.11 H 50 40.589 c -0.061,0 -0.111,-0.049 -0.111,-0.11 0,-0.059 0.05,-0.108 0.111,-0.108 h 0.624 v -0.949 h -1.249 z m 0.404,0.122 H 50 59.634 c 0.06,0 0.11,0.047 0.11,0.112 0,0.06 -0.051,0.106 -0.11,0.106 H 50 40.368 c -0.06,0 -0.11,-0.047 -0.11,-0.106 0,-0.065 0.05,-0.112 0.11,-0.112 z"
       id="path187" /><path
       d="m 38.832,62.41 h -0.839 v 1.442 L 38.38,63.834 V 62.82 c 0,-0.063 0.05,-0.109 0.109,-0.109 h 0.343 z"
       id="path189" /><path
       d="m 27.605,51.981 h -0.203 v 9.648 h 0.203 c 0.121,0 0.219,0.1 0.219,0.218 0,0.013 -0.01,0.018 -0.012,0.029 h 2.21 c -10e-4,-0.012 -0.011,-0.017 -0.011,-0.029 0,-0.118 0.097,-0.218 0.218,-0.218 h 0.202 V 51.981 H 30.23 c -0.121,0 -0.218,-0.1 -0.218,-0.218 0,-0.028 0.02,-0.048 0.029,-0.07 h -2.246 c 0.01,0.022 0.03,0.042 0.03,0.07 0,0.119 -0.099,0.218 -0.22,0.218 z m 2.321,9.569 H 27.91 v -0.9 h 2.016 z m 0,-1.188 H 27.91 v -0.83 h 2.016 z m 0,-1.114 H 27.91 v -0.742 h 2.016 z m 0,-1.031 H 27.91 v -0.379 c 0,-0.561 0.451,-1.009 1.008,-1.009 0.557,0 1.008,0.448 1.008,1.009 z m 0.034,-1.989 h -0.652 v 0.151 h -0.781 v -0.151 h -0.653 v -0.299 h 2.085 v 0.299 z m -1.042,-4.293 1,0.741 h -2 z m 1.25,0.926 v 2.6 h -0.481 v -2.202 h -1.539 v 2.202 h -0.48 v -2.6 z"
       id="path191" /><path
       d="m 37.663,46.202 h 6.563 l 1.508,-0.721 h -4.967 c -0.06,0 -0.11,-0.049 -0.11,-0.108 0,-0.063 0.05,-0.11 0.11,-0.11 h 5.427 l 1.374,-0.654 h -6.099 c -0.063,0 -0.111,-0.048 -0.111,-0.111 0,-0.06 0.049,-0.106 0.111,-0.106 h 6.558 L 50,43.446 51.976,44.39 h 6.56 c 0.06,0 0.109,0.047 0.109,0.106 0,0.063 -0.05,0.111 -0.109,0.111 h -6.098 l 1.372,0.654 h 5.426 c 0.061,0 0.107,0.048 0.107,0.11 0,0.06 -0.047,0.108 -0.107,0.108 h -4.965 l 1.504,0.721 h 6.563 v -0.096 l 0.565,-0.563 h -0.807 v -0.89 h -0.305 v -0.252 h -2.378 v 0.252 h -0.31 l -0.138,-0.128 c -0.712,-3.61 -4.663,-6.355 -8.966,-6.355 -4.301,0 -8.252,2.745 -8.966,6.355 l -0.14,0.128 H 40.589 V 44.399 H 38.21 v 0.252 h -0.306 v 0.89 h -0.803 l 0.562,0.563 z"
       id="path193" /><path
       d="m 16.583,60.984 h 0.436 V 54.26 c 0,-1.356 -1.062,-2.459 -2.366,-2.459 -1.304,0 -2.367,1.103 -2.367,2.459 v 6.724 h 0.437 v -3.456 -0.415 h 3.861 v 0.415 3.456 z m -3.475,-4.155 1.544,-1.143 1.545,1.143 z m -0.386,-1.67 v -0.898 c 0,-1.119 0.864,-2.024 1.931,-2.024 1.067,0 1.931,0.905 1.931,2.024 v 0.898 z"
       id="path195" /><polygon
       points="50,44.581 58.739,48.748 60.1,48.748 50,43.932 39.9,48.748 41.262,48.748 "
       id="polygon197" /><path
       d="m 11.676,51.012 h -0.213 v 9.973 h 0.384 v -6.724 c 0,-1.597 1.259,-2.896 2.805,-2.896 1.546,0 2.805,1.299 2.805,2.896 v 6.724 h 0.383 v -9.973 h -0.212 c -0.121,0 -0.22,-0.1 -0.22,-0.223 0,-0.052 0.025,-0.096 0.057,-0.136 h -5.627 c 0.032,0.04 0.057,0.084 0.057,0.136 0,0.123 -0.099,0.223 -0.219,0.223 z"
       id="path199" /><path
       d="M 16.094,60.984 V 57.528 H 13.21 v 3.456 z M 13.456,57.92 h 2.392 v 2.94 h -2.392 z"
       id="path201" /><polygon
       points="18.944,41.794 19.636,41.102 9.668,41.102 10.36,41.794 10.36,42.003 18.944,42.003 "
       id="polygon203" /><path
       d="m 19.046,39.873 h -0.768 v -0.714 c 0,-0.122 -0.098,-0.22 -0.218,-0.22 -0.122,0 -0.22,0.098 -0.22,0.22 v 0.714 h -1.833 v -0.714 c 0,-0.122 -0.1,-0.22 -0.22,-0.22 -0.121,0 -0.218,0.098 -0.218,0.22 v 0.714 H 14.98 v -5.599 c 0,-0.178 -0.147,-0.328 -0.328,-0.328 -0.182,0 -0.328,0.15 -0.328,0.328 v 5.599 h -0.59 v -0.714 c 0,-0.122 -0.098,-0.22 -0.218,-0.22 -0.121,0 -0.219,0.098 -0.219,0.22 v 0.714 h -1.834 v -0.714 c 0,-0.122 -0.099,-0.22 -0.219,-0.22 -0.12,0 -0.219,0.098 -0.219,0.22 v 0.714 h -0.767 v 0.788 h 8.788 z"
       id="path205" /><polygon
       points="40.591,44.185 41,43.761 40.453,43.761 40.453,43.113 40.062,42.709 40.062,41.41 38.736,41.41 38.736,42.709 38.347,43.113 38.347,43.761 37.801,43.761 38.21,44.185 38.21,44.187 40.591,44.187 "
       id="polygon207" /><polygon
       points="40.062,41.142 40.274,40.918 40.274,40.629 39.932,40.629 39.932,40.014 39.606,40.014 39.606,39.104 39.193,39.104 39.193,40.014 38.869,40.014 38.869,40.629 38.524,40.629 38.524,40.918 38.736,41.142 38.736,41.193 40.062,41.193 "
       id="polygon209" /><path
       d="m 52.631,51.522 h -0.123 v 9.809 h 0.123 c 0.123,0 0.221,0.096 0.221,0.219 0,0.094 -0.068,0.158 -0.152,0.191 h 0.103 c 0.062,0 0.11,0.047 0.11,0.106 v 0.34 h 1.984 v -0.34 c 0,-0.06 0.048,-0.106 0.11,-0.106 h 0.1 c -0.083,-0.033 -0.149,-0.098 -0.149,-0.191 0,-0.123 0.099,-0.219 0.222,-0.219 h 0.123 V 51.522 H 55.18 c -0.123,0 -0.222,-0.1 -0.222,-0.222 0,-0.109 0.088,-0.195 0.198,-0.207 h -2.501 c 0.11,0.012 0.197,0.098 0.197,0.207 0,0.123 -0.098,0.222 -0.221,0.222 z m 0.473,0.302 h 1.623 v 9.425 h -1.623 z"
       id="path211" /><path
       d="m 50,64.212 h -9.855 c -0.007,0 -0.011,-0.007 -0.02,-0.009 v 0.321 H 50 59.877 v -0.321 c -0.01,0.002 -0.015,0.009 -0.023,0.009 z"
       id="path213" /><rect
       x="51.445999"
       y="61.959"
       width="1.248"
       height="0.949"
       id="rect215" /><rect
       x="56.584"
       y="62.41"
       width="1.9859999"
       height="0.498"
       id="rect217" /><path
       d="M 56.305,51.522 H 56.18 v 9.809 h 0.125 c 0.122,0 0.217,0.096 0.217,0.219 0,0.094 -0.065,0.158 -0.147,0.191 h 0.1 c 0.06,0 0.11,0.047 0.11,0.106 v 0.34 h 1.986 v -0.34 c 0,-0.06 0.047,-0.106 0.107,-0.106 h 0.1 C 58.696,61.708 58.63,61.643 58.63,61.55 c 0,-0.123 0.1,-0.219 0.218,-0.219 h 0.128 v -9.809 h -0.128 c -0.118,0 -0.218,-0.1 -0.218,-0.222 0,-0.109 0.088,-0.195 0.198,-0.207 h -2.5 c 0.108,0.012 0.194,0.098 0.194,0.207 -10e-4,0.123 -0.095,0.222 -0.217,0.222 z m 0.465,0.302 h 1.626 v 9.425 H 56.77 Z"
       id="path219" /><rect
       x="52.911999"
       y="62.41"
       width="1.984"
       height="0.498"
       id="rect221" /><rect
       x="55.113998"
       y="61.959"
       width="1.249"
       height="0.949"
       id="rect223" /><path
       d="m 77.14,51.981 h -0.201 v 9.648 h 0.201 c 0.124,0 0.221,0.1 0.221,0.218 0,0.013 -0.009,0.018 -0.011,0.029 h 2.685 V 51.693 h -2.703 c 0.01,0.022 0.029,0.042 0.029,0.07 -0.001,0.119 -0.097,0.218 -0.221,0.218 z m 2.321,9.569 h -2.016 v -0.9 h 2.016 z m 0,-1.188 h -2.016 v -0.83 h 2.016 z m 0,-1.114 h -2.016 v -0.742 h 2.016 z m 0,-1.031 h -2.016 v -0.379 c 0,-0.561 0.451,-1.009 1.008,-1.009 0.559,0 1.008,0.448 1.008,1.009 z m 0.037,-1.989 h -0.653 v 0.151 h -0.781 v -0.151 h -0.652 v -0.299 h 2.087 v 0.299 z m -1.045,-4.293 0.999,0.741 h -2 z m 1.249,0.926 v 2.6 h -0.48 v -2.202 h -1.537 v 2.202 h -0.481 v -2.6 z"
       id="path225" /><rect
       x="88.045998"
       y="62.833"
       width="2.3299999"
       height="3.221"
       id="rect227" /><path
       d="m 73.456,51.981 h -0.202 v 9.648 h 0.202 c 0.121,0 0.22,0.1 0.22,0.218 0,0.013 -0.01,0.018 -0.012,0.029 h 2.207 c -0.002,-0.012 -0.01,-0.017 -0.01,-0.029 0,-0.118 0.098,-0.218 0.22,-0.218 h 0.2 v -9.648 h -0.2 c -0.122,0 -0.22,-0.1 -0.22,-0.218 0,-0.028 0.019,-0.048 0.027,-0.07 h -2.244 c 0.011,0.022 0.031,0.042 0.031,0.07 0.001,0.119 -0.098,0.218 -0.219,0.218 z m 2.321,9.569 H 73.76 v -0.9 h 2.017 z m 0,-1.188 H 73.76 v -0.83 h 2.017 z m 0,-1.114 H 73.76 v -0.742 h 2.017 z m 0,-1.031 H 73.76 v -0.379 c 0,-0.561 0.449,-1.009 1.008,-1.009 0.557,0 1.009,0.448 1.009,1.009 z m 0.034,-1.989 h -0.652 v 0.151 h -0.782 v -0.151 h -0.651 v -0.299 h 2.086 v 0.299 z m -1.042,-4.293 1.002,0.741 H 73.77 Z m 1.251,0.926 v 2.6 H 75.538 V 53.259 H 74 v 2.202 h -0.479 v -2.6 z"
       id="path229" /><path
       d="m 82.872,64.823 c 0.062,0.04 0.112,0.096 0.112,0.172 v 1.059 h 4.842 v -3.221 h -4.954 z m 1.425,-1.736 h 2.105 v 2.205 h -2.105 z"
       id="path231" /><path
       d="m 66.084,51.981 h -0.201 v 9.648 h 0.201 c 0.122,0 0.221,0.1 0.221,0.218 0,0.013 -0.01,0.018 -0.012,0.029 h 2.209 c -10e-4,-0.012 -0.012,-0.017 -0.012,-0.029 0,-0.118 0.098,-0.218 0.222,-0.218 h 0.199 v -9.648 h -0.199 c -0.124,0 -0.222,-0.1 -0.222,-0.218 0,-0.028 0.021,-0.048 0.03,-0.07 h -2.246 c 0.01,0.022 0.03,0.042 0.03,0.07 0.001,0.119 -0.098,0.218 -0.22,0.218 z m 2.32,9.569 H 66.39 v -0.9 h 2.014 z m 0,-1.188 H 66.39 v -0.83 h 2.014 z m 0,-1.114 H 66.39 v -0.742 h 2.014 z m 0,-1.031 H 66.39 v -0.379 c 0.002,-0.561 0.448,-1.009 1.007,-1.009 0.557,0 1.007,0.448 1.007,1.009 z m 0.036,-1.989 h -0.651 v 0.151 h -0.781 v -0.151 h -0.651 v -0.299 h 2.084 v 0.299 z m -1.043,-4.293 0.998,0.741 h -1.998 z m 1.249,0.926 v 2.6 h -0.48 V 53.259 H 66.63 v 2.202 h -0.482 v -2.6 z"
       id="path233" /><path
       d="m 62.7,62.094 c 0,-0.118 0.1,-0.217 0.218,-0.217 h 1.898 c 0,-0.012 -0.01,-0.017 -0.01,-0.029 0,-0.118 0.097,-0.218 0.217,-0.218 h 0.204 v -9.648 h -0.204 c -0.12,0 -0.217,-0.1 -0.217,-0.218 0,-0.028 0.018,-0.048 0.025,-0.07 h -2.999 v 10.494 h 0.448 c 0.06,0 0.11,0.053 0.11,0.112 0,0.059 -0.051,0.11 -0.11,0.11 h -0.054 v 1.453 l 0.877,0.041 v -0.671 h 1.215 v 0.724 l 2.473,0.112 v -0.836 h 1.211 v 0.888 l 2.473,0.112 v -1 h 1.214 v 1.052 l 2.473,0.112 v -1.164 h 1.212 v 1.216 l 2.475,0.112 v -1.328 h 1.211 v 1.38 l 3.596,0.161 V 62.833 H 62.918 c -0.059,0 -0.106,-0.047 -0.106,-0.105 0,-0.063 0.048,-0.112 0.106,-0.112 h 27.458 v -0.3 H 62.918 C 62.8,62.315 62.7,62.216 62.7,62.094 Z m 2.023,-0.544 h -2.019 v -0.9 h 2.019 z m 0,-1.188 h -2.019 v -0.83 h 2.019 z m 0,-1.114 h -2.019 v -0.742 h 2.019 z m 0,-1.031 h -2.019 v -0.379 c 0,-0.561 0.452,-1.009 1.008,-1.009 0.557,0 1.011,0.448 1.011,1.009 z m -1.011,-6.282 1.001,0.741 h -2 z m -1.249,0.926 h 2.501 v 2.6 h -0.481 v -2.202 h -1.54 v 2.202 h -0.479 v -2.6 z m 0.206,3.068 h 2.084 v 0.299 h -0.651 v 0.151 H 63.323 V 56.228 H 62.67 v -0.299 z"
       id="path235" /><path
       d="M 62.007,63.853 V 62.41 H 61.17 v 0.302 h 0.34 c 0.063,0 0.111,0.047 0.111,0.109 v 1.014 z"
       id="path237" /><path
       d="m 69.771,51.981 h -0.203 v 9.648 h 0.203 c 0.118,0 0.218,0.1 0.218,0.218 0,0.013 -0.011,0.018 -0.013,0.029 h 2.213 c -0.002,-0.012 -0.013,-0.017 -0.013,-0.029 0,-0.118 0.099,-0.218 0.217,-0.218 h 0.204 v -9.648 h -0.204 c -0.118,0 -0.217,-0.1 -0.217,-0.218 0,-0.028 0.021,-0.048 0.028,-0.07 h -2.242 c 0.007,0.022 0.026,0.042 0.026,0.07 0.001,0.119 -0.098,0.218 -0.217,0.218 z m 2.32,9.569 h -2.017 v -0.9 h 2.017 z m 0,-1.188 h -2.017 v -0.83 h 2.017 z m 0,-1.114 h -2.017 v -0.742 h 2.017 z m 0,-1.031 h -2.017 v -0.379 c 0,-0.561 0.452,-1.009 1.009,-1.009 0.555,0 1.008,0.448 1.008,1.009 z m 0.034,-1.989 h -0.652 v 0.151 h -0.778 v -0.151 h -0.651 v -0.299 h 2.082 v 0.299 z m -1.042,-4.293 0.998,0.741 h -2 z m 1.251,0.926 v 2.6 h -0.48 v -2.202 h -1.54 v 2.202 h -0.481 v -2.6 z"
       id="path239" /><path
       d="m 87.28,60.984 h 0.437 V 54.26 c 0,-1.356 -1.063,-2.459 -2.369,-2.459 -1.305,0 -2.363,1.103 -2.363,2.459 v 6.724 h 0.435 v -3.456 -0.415 h 3.861 v 0.415 3.456 z m -3.475,-4.155 1.543,-1.143 1.547,1.143 z m -0.386,-1.67 v -0.898 c 0,-1.119 0.863,-2.024 1.929,-2.024 1.068,0 1.933,0.905 1.933,2.024 v 0.898 z"
       id="path241" /><polygon
       points="42.279,48.748 50,48.748 57.722,48.748 50,45.064 "
       id="polygon243" /><path
       d="m 88.538,60.984 v -9.973 h -0.213 c -0.121,0 -0.22,-0.1 -0.22,-0.223 0,-0.052 0.025,-0.096 0.056,-0.136 h -5.626 c 0.033,0.04 0.059,0.084 0.059,0.136 0,0.123 -0.098,0.223 -0.221,0.223 H 82.16 v 9.973 h 0.384 V 54.26 c 0,-1.597 1.259,-2.896 2.804,-2.896 1.549,0 2.807,1.299 2.807,2.896 v 6.724 z"
       id="path245" /><path
       d="m 92.133,60.6 h -0.455 v -8.868 h 0.142 v -1.078 h -2.03 c 0.031,0.04 0.056,0.084 0.056,0.136 0,0.123 -0.1,0.223 -0.218,0.223 h -0.216 v 9.973 h 0.239 c 0.12,0 0.219,0.098 0.219,0.218 0,0.122 -0.099,0.216 -0.219,0.216 h -8.604 c -0.12,0 -0.217,-0.094 -0.217,-0.216 0,-0.12 0.097,-0.218 0.217,-0.218 h 0.235 v -9.973 h -0.21 c -0.123,0 -0.221,-0.1 -0.221,-0.223 0,-0.052 0.024,-0.096 0.059,-0.136 H 62.648 c -0.123,0 -0.221,-0.1 -0.221,-0.218 0,-0.122 0.098,-0.22 0.221,-0.22 H 91.974 L 92.291,49.9 v -0.26 h -29.13 c -0.121,0 -0.22,-0.096 -0.22,-0.217 0,-0.122 0.099,-0.218 0.22,-0.218 h 2.166 v -0.468 c 0,-0.118 0.099,-0.218 0.222,-0.218 0.118,0 0.218,0.1 0.218,0.218 v 0.468 h 3.449 v -0.468 c 0,-0.118 0.096,-0.218 0.219,-0.218 0.121,0 0.219,0.1 0.219,0.218 v 0.468 h 3.484 v -0.468 c 0,-0.118 0.099,-0.218 0.221,-0.218 0.12,0 0.218,0.1 0.218,0.218 v 0.468 h 3.48 v -0.468 c 0,-0.118 0.099,-0.218 0.221,-0.218 0.12,0 0.219,0.1 0.219,0.218 v 0.468 h 14.474 v -1.138 h -0.51 V 47.754 H 91.42 v -1.967 c 0,-0.181 -0.146,-0.327 -0.328,-0.327 -0.183,0 -0.329,0.146 -0.329,0.327 v 1.967 h -0.429 v -1.588 l -0.693,-0.692 v -3.031 h -8.585 v 3.031 l -0.692,0.692 v 1.588 h -2.866 v -1.122 c 0,-0.122 -0.101,-0.222 -0.219,-0.222 -0.122,0 -0.221,0.1 -0.221,0.222 v 1.122 h -3.476 v -1.122 c 0,-0.122 -0.1,-0.222 -0.217,-0.222 -0.123,0 -0.222,0.1 -0.222,0.222 v 1.122 h -3.476 v -1.122 c 0,-0.122 -0.1,-0.222 -0.218,-0.222 -0.122,0 -0.222,0.1 -0.222,0.222 v 1.122 h -3.475 v -1.122 c 0,-0.122 -0.1,-0.222 -0.218,-0.222 -0.124,0 -0.22,0.1 -0.22,0.222 v 1.122 H 62.335 V 46.417 H 56.233 L 61.4,48.88 c 0.074,0.038 0.122,0.115 0.122,0.198 v 0.479 c 0,0.062 -0.023,0.115 -0.064,0.155 l -0.603,0.602 c -0.039,0.044 -0.096,0.064 -0.153,0.064 H 50 39.298 c -0.059,0 -0.114,-0.021 -0.156,-0.064 L 38.54,49.712 c -0.042,-0.04 -0.064,-0.094 -0.064,-0.155 v -0.479 c 0,-0.083 0.048,-0.16 0.125,-0.198 l 5.166,-2.463 h -6.104 v 1.337 h -2.978 v -1.122 c 0,-0.122 -0.099,-0.222 -0.219,-0.222 -0.12,0 -0.219,0.1 -0.219,0.222 v 1.122 H 30.77 v -1.122 c 0,-0.122 -0.098,-0.222 -0.218,-0.222 -0.121,0 -0.218,0.1 -0.218,0.222 v 1.122 h -3.477 v -1.122 c 0,-0.122 -0.099,-0.222 -0.219,-0.222 -0.121,0 -0.219,0.1 -0.219,0.222 v 1.122 h -3.475 v -1.122 c 0,-0.122 -0.1,-0.222 -0.22,-0.222 -0.12,0 -0.22,0.1 -0.22,0.222 v 1.122 H 19.638 V 46.166 L 18.945,45.474 V 42.443 H 10.36 v 3.031 l -0.695,0.692 v 1.588 H 9.238 v -1.967 c 0,-0.181 -0.147,-0.327 -0.328,-0.327 -0.182,0 -0.329,0.146 -0.329,0.327 v 1.967 h -0.04 v 0.313 h -0.51 v 1.138 h 14.473 v -0.468 c 0,-0.118 0.1,-0.218 0.22,-0.218 0.121,0 0.22,0.1 0.22,0.218 v 0.468 h 3.479 v -0.468 c 0,-0.118 0.098,-0.218 0.22,-0.218 0.121,0 0.218,0.1 0.218,0.218 v 0.468 h 3.486 v -0.468 c 0,-0.118 0.098,-0.218 0.219,-0.218 0.121,0 0.219,0.1 0.219,0.218 v 0.468 h 3.449 v -0.468 c 0,-0.118 0.098,-0.218 0.219,-0.218 0.121,0 0.218,0.1 0.218,0.218 v 0.468 h 2.168 c 0.12,0 0.219,0.096 0.219,0.218 0,0.121 -0.099,0.217 -0.219,0.217 H 7.71 v 0.26 l 0.317,0.316 h 29.327 c 0.121,0 0.218,0.098 0.218,0.22 0,0.118 -0.097,0.218 -0.218,0.218 H 19.092 c 0.032,0.04 0.057,0.084 0.057,0.136 0,0.123 -0.098,0.223 -0.219,0.223 h -0.213 v 9.973 h 0.237 c 0.122,0 0.218,0.098 0.218,0.218 0,0.122 -0.097,0.216 -0.218,0.216 H 10.35 c -0.121,0 -0.218,-0.094 -0.218,-0.216 0,-0.12 0.098,-0.218 0.218,-0.218 h 0.238 v -9.973 h -0.214 c -0.121,0 -0.218,-0.1 -0.218,-0.223 0,-0.052 0.023,-0.096 0.057,-0.136 H 8.182 v 1.078 h 0.14 V 60.6 H 7.868 L 7.5,60.97 v 5.084 h 1.688 v -3.96 c 0,-0.118 0.098,-0.217 0.219,-0.217 H 19.746 V 51.584 c 0,-0.06 0.048,-0.11 0.108,-0.11 h 18.42 c 0.061,0 0.112,0.051 0.112,0.11 v 10.604 h 0.445 v -0.036 c 0,-0.029 0.012,-0.06 0.031,-0.078 l 0.271,-0.27 V 50.981 c 0,-0.06 0.049,-0.109 0.108,-0.109 0.061,0 0.11,0.05 0.11,0.109 v 10.866 c 0,0.031 -0.011,0.06 -0.033,0.078 l -0.268,0.27 v 0.626 c 0,0.062 -0.05,0.108 -0.111,0.108 H 38.6 v 0.288 h 1.145 v -1.37 c 0,-0.06 0.051,-0.106 0.11,-0.106 h 0.101 c -0.083,-0.033 -0.148,-0.098 -0.148,-0.191 0,-0.123 0.097,-0.219 0.217,-0.219 h 0.126 v -9.809 h -0.126 c -0.121,0 -0.217,-0.1 -0.217,-0.222 0,-0.109 0.087,-0.195 0.196,-0.207 h -0.295 c -0.061,0 -0.109,-0.052 -0.109,-0.112 0,-0.06 0.048,-0.109 0.109,-0.109 H 50 60.294 c 0.06,0 0.11,0.05 0.11,0.109 0,0.061 -0.051,0.112 -0.11,0.112 h -0.293 c 0.105,0.012 0.193,0.098 0.193,0.207 0,0.122 -0.099,0.222 -0.218,0.222 h -0.128 v 9.809 h 0.128 c 0.119,0 0.218,0.096 0.218,0.219 0,0.094 -0.066,0.158 -0.148,0.191 h 0.102 c 0.06,0 0.108,0.047 0.108,0.106 v 1.37 h 1.147 V 62.93 H 61.06 c -0.062,0 -0.11,-0.047 -0.11,-0.108 v -0.626 l -0.271,-0.27 C 60.661,61.907 60.65,61.879 60.65,61.848 V 50.981 c 0,-0.06 0.047,-0.109 0.107,-0.109 0.063,0 0.11,0.05 0.11,0.109 v 10.822 l 0.27,0.27 c 0.021,0.019 0.032,0.049 0.032,0.078 v 0.036 h 0.444 V 51.584 c 0,-0.06 0.05,-0.11 0.11,-0.11 h 18.421 c 0.059,0 0.109,0.051 0.109,0.11 v 10.293 h 10.338 c 0.122,0 0.22,0.099 0.22,0.217 v 3.96 H 92.5 V 60.97 Z M 86.516,43.439 c 0,-0.357 0.279,-0.646 0.62,-0.646 0.34,0 0.615,0.288 0.615,0.646 v 1.295 h -1.235 z m -1.784,0 c 0,-0.357 0.274,-0.646 0.615,-0.646 0.343,0 0.619,0.288 0.619,0.646 v 1.295 h -1.234 z m -1.788,0 c 0,-0.357 0.279,-0.646 0.619,-0.646 0.342,0 0.616,0.288 0.616,0.646 v 1.295 h -1.235 z m -0.28,2.205 h 5.384 c 0.119,0 0.217,0.1 0.217,0.222 0,0.118 -0.098,0.218 -0.217,0.218 h -5.384 c -0.121,0 -0.219,-0.1 -0.219,-0.218 0,-0.123 0.098,-0.222 0.219,-0.222 z m -1.608,2.574 h 0.479 v -2.757 c 0,-0.182 0.147,-0.328 0.328,-0.328 0.182,0 0.328,0.146 0.328,0.328 v 2.757 h 0.737 v -1.552 h 4.839 v 1.552 h 0.736 v -2.757 c 0,-0.182 0.148,-0.328 0.328,-0.328 0.182,0 0.328,0.146 0.328,0.328 v 2.757 h 0.48 V 48.63 H 81.054 V 48.218 Z M 15.821,43.439 c 0,-0.357 0.275,-0.646 0.617,-0.646 0.342,0 0.618,0.288 0.618,0.646 v 1.295 h -1.234 v -1.295 z m -1.786,0 c 0,-0.357 0.275,-0.646 0.618,-0.646 0.34,0 0.618,0.288 0.618,0.646 v 1.295 h -1.235 v -1.295 z m -1.786,0 c 0,-0.357 0.276,-0.646 0.619,-0.646 0.339,0 0.617,0.288 0.617,0.646 v 1.295 H 12.25 v -1.295 z m -0.294,2.205 h 5.382 c 0.121,0 0.219,0.1 0.219,0.222 0,0.118 -0.099,0.218 -0.219,0.218 h -5.382 c -0.121,0 -0.219,-0.1 -0.219,-0.218 0,-0.123 0.098,-0.222 0.219,-0.222 z m 6.989,2.986 H 10.36 v -0.412 h 0.479 v -2.757 c 0,-0.182 0.147,-0.328 0.328,-0.328 0.181,0 0.328,0.146 0.328,0.328 v 2.757 h 0.737 v -1.552 h 4.839 v 1.552 h 0.737 v -2.757 c 0,-0.182 0.147,-0.328 0.328,-0.328 0.181,0 0.328,0.146 0.328,0.328 v 2.757 h 0.479 V 48.63 Z M 9.408,60.6 H 8.979 V 51.732 H 9.407 V 60.6 Z M 38.189,49.943 h -0.651 c -0.059,0 -0.109,-0.051 -0.109,-0.11 v -1.655 c 0,-0.06 0.05,-0.11 0.109,-0.11 0.061,0 0.11,0.051 0.11,0.11 v 1.544 h 0.541 c 0.06,0 0.109,0.053 0.109,0.111 0,0.06 -0.049,0.11 -0.109,0.11 z m 23.515,-0.11 c 0,-0.059 0.047,-0.111 0.109,-0.111 h 0.539 v -1.544 c 0,-0.06 0.051,-0.11 0.11,-0.11 0.059,0 0.111,0.051 0.111,0.11 v 1.655 c 0,0.06 -0.052,0.11 -0.111,0.11 h -0.649 c -0.062,0 -0.109,-0.05 -0.109,-0.11 z M 91.021,60.6 h -0.429 v -8.868 h 0.429 z"
       id="path247" /><path
       d="m 86.791,60.984 v -3.456 h -2.883 v 3.456 z M 84.153,57.92 h 2.392 v 2.94 h -2.392 z"
       id="path249" /><polygon
       points="89.641,41.794 90.33,41.102 80.365,41.102 81.056,41.794 81.056,42.003 89.641,42.003 "
       id="polygon251" /><path
       d="m 89.742,39.873 h -0.768 v -0.714 c 0,-0.122 -0.096,-0.22 -0.22,-0.22 -0.117,0 -0.217,0.098 -0.217,0.22 v 0.714 h -1.834 v -0.714 c 0,-0.122 -0.099,-0.22 -0.22,-0.22 -0.12,0 -0.22,0.098 -0.22,0.22 v 0.714 h -0.589 v -5.599 c 0,-0.178 -0.146,-0.328 -0.328,-0.328 -0.181,0 -0.329,0.15 -0.329,0.328 v 5.599 h -0.588 v -0.714 c 0,-0.122 -0.096,-0.22 -0.218,-0.22 -0.121,0 -0.22,0.098 -0.22,0.22 v 0.714 H 82.16 v -0.714 c 0,-0.122 -0.098,-0.22 -0.221,-0.22 -0.117,0 -0.217,0.098 -0.217,0.22 v 0.714 h -0.768 v 0.788 h 8.787 v -0.788 z"
       id="path253" /><path
       d="m 60.314,64.742 c 0,0.123 -0.099,0.221 -0.221,0.221 H 50 39.906 c -0.122,0 -0.22,-0.098 -0.22,-0.221 v -0.524 l -22.229,0.989 v 0.847 H 50 82.544 V 65.207 L 60.315,64.218 v 0.524 z"
       id="path255" /><polygon
       points="61.791,44.185 62.199,43.761 61.655,43.761 61.655,43.113 61.262,42.709 61.262,41.41 59.937,41.41 59.937,42.709 59.548,43.113 59.548,43.761 59.004,43.761 59.413,44.185 59.413,44.187 61.791,44.187 "
       id="polygon257" /><polygon
       points="61.262,41.142 61.477,40.918 61.477,40.629 61.133,40.629 61.133,40.014 60.807,40.014 60.807,39.104 60.396,39.104 60.396,40.014 60.07,40.014 60.07,40.629 59.727,40.629 59.727,40.918 59.937,41.142 59.937,41.193 61.262,41.193 "
       id="polygon259" /></g></svg>
